<?xml version="1.0" standalone="no"?><!DOCTYPE svg PUBLIC "-//W3C//DTD SVG 1.1//EN" "http://www.w3.org/Graphics/SVG/1.1/DTD/svg11.dtd"><svg t="1515458033938" class="icon" style="" viewBox="0 0 1024 1024" version="1.1" xmlns="http://www.w3.org/2000/svg" p-id="3807" xmlns:xlink="http://www.w3.org/1999/xlink" width="48" height="48"><defs><style type="text/css"></style></defs><path d="M103.616 431.104s-28.8 24.64-45.952 27.776c-17.216 3.136-14.08-9.408-14.08-9.408s12.864-8.576 14.464-21.44c1.536-12.928 8.512-65.344 15.744-72 0 0-54.528 23.04-63.744 58.688-6.272 24.32 7.04 28.8 11.776 38.976 4.672 10.176-3.264 27.072 15.104 35.648 18.368 8.64 44.864 0 44.864 0" fill="#EFEA3C" p-id="3808"></path><path d="M56.768 501.504a57.088 57.088 0 0 1-23.36-4.48C16.448 489.088 15.744 474.944 15.36 465.6c-0.192-3.328-0.32-6.592-1.152-8.384-0.832-1.856-2.368-3.648-4.096-5.696-5.824-7.296-13.824-17.152-8.192-38.912 10.112-39.232 66.24-63.36 68.608-64.32l17.728-9.536s-7.552 12.608-11.264 23.872c-1.664 5.184-6.656 33.472-10.624 66.368a38.144 38.144 0 0 1-11.392 21.824l1.152-0.192c10.944-1.984 31.552-16.96 42.048-25.92l10.88 12.736c-3.072 2.688-31.04 26.24-49.92 29.696-8.96 1.6-13.44-1.408-17.792-6.144-4.352-4.608-5.76-9.024-4.736-13.12 0 0 1.216-3.2 1.6-3.904a25.472 25.472 0 0 1 4.416-4.736c2.688-1.792 6.208-4.928 7.104-12.288 2.752-22.656 10.432-45.12 13.504-58.048-15.36 9.28-44.8 27.712-49.664 46.464-3.52 13.568 4.672 19.392 9.6 25.472 2.112 2.688 4.544 5.696 6.272 9.344 2.176 4.8 2.432 9.792 2.688 14.656 0.384 8.96 0.896 13.376 8.384 16.896 12.608 5.888 32.192 1.792 38.656-0.384l5.184 15.936a95.424 95.424 0 0 1-27.584 4.224" fill="#080707" p-id="3809"></path><path d="M85.568 611.072s-9.152 31.424-16.96 34.56c-7.808 3.136-41.408 32-42.24 49.216-0.768 17.28 22.4 86.784 111.616 93.056l38.464-60.928-90.88-115.904z" fill="#EFEA3C" p-id="3810"></path><path d="M142.464 796.544l-5.056-0.32C43.392 789.632 17.088 714.944 18.048 694.4c1.024-22.016 37.888-52.8 47.424-56.576 2.24-1.92 8.128-15.744 12.032-29.056l4.544-15.744 104.576 133.376-44.16 70.144zM88.576 628.48c-4.48 11.712-10.176 22.272-16.896 24.96-6.976 2.944-36.352 29.632-36.928 41.728-0.448 9.92 15.872 75.648 98.816 83.904l32.576-51.712L88.576 628.48z" fill="#040000" p-id="3811"></path><path d="M541.312 817.024s29.184 14.656 64.64 14.656c35.392 0 56.256-5.184 61.44-14.656 5.248-9.344-6.592-176.704-31.872-175.872" fill="#EFEA3C" p-id="3812"></path><path d="M605.952 840a167.488 167.488 0 0 1-68.352-15.488l7.488-14.976c0.32 0.128 27.968 13.696 60.864 13.696 46.976 0 53.568-9.216 54.144-10.176 4.416-17.792-10.112-154.752-25.408-163.712l0.512-16.576c6.336 0.192 11.84 3.456 16.384 10.88 18.56 30.528 30.848 163.648 23.168 177.472-7.168 12.8-29.056 18.88-68.8 18.88" fill="#0D0C0C" p-id="3813"></path><path d="M297.728 751.168c31.744 12.288 123.712-6.08 123.712-6.08s-66.752 35.648-68.544 46.656c-1.792 10.944-4.48-2.816 22.464 49.92 26.944 52.672 57.088 55.04 71.936 55.04s14.592-9.92 25.344-20.672c10.816-10.752 93.12-93.312 105.28-99.52 12.288-6.336 65.152-155.712 65.152-155.712 31.168 31.808 65.92 61.888 107.648 49.344 41.664-12.48 48.192-77.248 48.192-77.248s47.36 6.272 60.416 6.272c13.12 0 135.808 4.672 150.272-161.152 14.4-165.824-33.344-192.704-52.864-192.384-19.52 0.384-39.36 33.536-49.216 45.312-9.792 11.776-31.616 10.624-31.616 10.624s-11.968-27.072-30.848-53.248c-18.944-26.176-33.536-17.28-73.408-45.312-39.872-28.096-80.96-80.448-177.92-74.176-97.152 6.272-161.024 94.912-161.024 94.912-44.352 3.584-88.704 64.768-88.704 64.768s-114.688-4.416-199.168 82.112C60.48 457.088 65.664 545.344 76.096 599.168s69.824 148.224 69.824 158.848c0 0-29.184 60.608-24 83.52 5.248 22.912 121.92 52.096 134.4 42.752 12.544-9.344 18.752-42.752 19.776-52.032 1.088-9.408 25.024-37.504 25.024-52.096a138.752 138.752 0 0 0-3.392-28.992" fill="#EFEA3C" p-id="3814"></path><path d="M346.752 645.44c-51.456 0-76.736-49.6-77.824-51.776l-0.896-1.728-1.088-5.504c0-15.04 2.432-16 4.224-20.736 1.088-2.816 2.304-6.08 2.304-23.232 0-12.672-6.72-19.776-16.128-29.632-12.288-12.928-27.584-28.992-27.584-62.528 0-59.968 153.344-214.656 171.072-225.856 18.24-11.648 67.904-7.616 82.496-6.848 10.88 0.576 43.328 3.904 43.328 3.904-34.432 0.64-106.24 5.44-116.8 17.088-14.144 15.552-163.328 161.984-163.328 211.712 0 26.816 11.136 38.528 22.976 50.944 10.24 10.688 20.8 21.824 20.8 41.216 0 18.816-1.472 24-3.456 29.248-0.96 2.56-4.8 5.312-1.984 16.128 2.24 8.704 25.6 40.832 61.888 40.832 20.224 0 43.136-12.352 67.392-25.536 27.2-14.72 55.296-29.952 85.248-31.36 3.584-7.296 20.8-36.16 20.8-67.584a131.84 131.84 0 0 0-8.64-46.208c-4.16-12.8-5.184-26.112-5.184-44.416 0-34.944 0.32-81.92 0.32-82.368 0 0 2.88 19.584 3.392 24.448 0.064 0.448 4.608 24.384 6.784 58.752 1.024 15.616 3.776 27.072 7.744 39.232 4.416 13.568 9.472 28.992 9.472 51.328 0 34.496-14.528 64.256-20.8 75.52a15.744 15.744 0 0 1-13.12 7.936c-26.048 1.28-52.48 15.552-78.016 29.376-26.176 14.272-50.88 27.648-75.392 27.648" fill="#040000" p-id="3815"></path><path d="M861.952 604.928c-75.456 0-148.16-36.608-152.32-38.592l2.496-15.04c1.28 0.64 120.64 56.832 201.536 29.056 61.952-21.312 96.832-95.104 93.312-197.504-2.88-82.368-18.624-111.552-31.36-121.472a23.552 23.552 0 0 0-20.544-4.48c-10.304 2.176-15.296 9.728-21.632 19.264-3.904 5.888-8.32 12.544-14.464 18.304-17.344 16.128-41.216 15.68-42.432 15.744l-7.104-0.192-0.96-7.04c-0.064-0.192-3.904-24.576-28.096-51.2a76.416 76.416 0 0 0-44.096-25.344c-6.08-1.536-11.776-2.944-17.152-5.696-4.032-2.112-8.448-6.784-15.04-13.824-25.024-26.56-76.992-81.792-174.912-66.368-119.68 18.752-143.744 85.184-144 85.888l-15.936-5.44c1.088-3.136 27.712-76.736 157.312-97.088 106.752-16.704 164.864 45.12 189.696 71.488 4.224 4.48 8.96 9.536 10.624 10.432a62.08 62.08 0 0 0 13.376 4.288c13.568 3.392 32.128 7.936 52.544 30.336 19.52 21.504 27.456 41.792 30.528 52.48a45.44 45.44 0 0 0 24.192-10.816c4.672-4.352 8.256-9.664 12.032-15.232 7.04-10.688 15.04-22.784 32.128-26.432a40.832 40.832 0 0 1 34.368 7.68c22.784 17.92 35.2 61.824 37.76 134.144 3.84 110.208-35.264 190.208-104.64 214.016a176.448 176.448 0 0 1-57.216 8.64" fill="#050505" p-id="3816"></path><path d="M735.04 679.104c-36.096 0-66.112-24.896-91.392-50.56-15.104-15.36-26.112-17.152-36.096-22.976a226.048 226.048 0 0 1-39.552-33.472l12.544 7.04c15.104 9.28 17.216 10.432 26.752 13.952 11.52 4.096 25.728 7.168 43.52 25.344 28.48 28.928 65.024 52.608 103.232 41.088 35.712-10.752 42.176-69.504 42.24-70.144l16.64 1.728c-0.256 2.88-7.552 70.528-54.08 84.416a81.152 81.152 0 0 1-23.808 3.584" fill="#040000" p-id="3817"></path><path d="M251.392 891.712c-25.088 0-68.48-12.8-85.696-19.072-38.08-14.016-44.608-24.896-46.208-31.872-5.184-23.04 17.344-73.536 23.424-86.528a573.44 573.44 0 0 0-16.576-33.088c-18.24-34.752-45.824-87.424-52.736-123.072-17.728-91.648 5.504-168.832 71.04-235.968C230.656 273.92 345.216 277.312 350.08 277.504l-0.64 16.768c-1.216-0.256-112.128-3.072-192.832 79.552-61.376 62.848-83.136 135.232-66.496 221.056 6.464 33.344 33.28 84.608 51.072 118.528 15.04 28.736 18.88 36.672 18.88 41.92l-0.832 3.648c-10.816 22.528-26.688 63.424-23.36 78.08 0 0.064 1.536 4.416 17.152 12.032 35.904 17.536 95.936 28.864 104.704 25.408 7.552-5.824 14.336-32.704 15.808-45.952 0.64-5.568 4.48-12.032 11.2-22.784 5.504-8.896 13.76-22.272 13.76-28.352 0-11.328-8.896-62.144-12.352-80.768l6.912 11.648c6.4 10.88 22.272 54.272 22.272 69.12 0 10.88-8.32 24.256-16.32 37.184-3.52 5.696-8.32 13.44-8.768 15.936-0.064 0.384-5.376 44.48-23.104 57.792-3.2 2.432-8.768 3.392-15.744 3.392" fill="#050505" p-id="3818"></path><path d="M337.024 761.28c-14.336 0-27.456-1.344-36.544-4.864l6.08-15.616c24.192 9.28 94.144-1.472 119.04-6.528l-0.64 13.568c-6.976 1.28-50.112 13.44-87.936 13.44" fill="#050505" p-id="3819"></path><path d="M286.848 571.712l-6.784-14.4c1.536-2.816 10.752-49.92 70.016-93.248 0 0-30.144 35.072-34.56 42.816-15.04 26.816-18.56 46.4-28.672 64.832" fill="#040000" p-id="3820"></path><path d="M712.128 551.296s-32.128 90.432 14.336 98.24c41.664 6.912 57.472-64.128 57.472-64.128l-71.808-34.112z" fill="#050505" p-id="3821"></path><path d="M676.288 389.12s-35.712-30.272-6.656-54.08c24-19.776 53.952 17.024 50.56 22.848-3.392 5.888-43.904 31.232-43.904 31.232" fill="#040000" p-id="3822"></path><path d="M631.936 376.832s23.296-32.128 38.336-43.904c14.976-11.776 48.064-14.336 48.064-14.336s-22.336 3.52-44.032 22.08l-42.368 36.16M606.912 344.512s-6.72-44.096-0.256-60.992c6.528-16.96 46.656-28.608 46.656-28.608s-31.04 19.84-36.032 33.984c-7.232 20.736-10.368 55.616-10.368 55.616M825.216 331.776s-18.88-32.512 11.712-39.04c28.032-6.08 28.096 37.312 28.096 37.312l-39.808 1.728z" fill="#040000" p-id="3823"></path><path d="M802.688 303.744s21.248-12.48 39.552-12.48c18.24 0 28.8 14.464 28.8 14.464s-15.872-9.792-28.8-9.792c-12.992 0.064-39.552 7.808-39.552 7.808M381.888 376.832s22.272-95.296 49.984-107.84c36.8-16.576 79.744-8.576 79.744-8.576s-46.72 2.56-73.6 19.904c-27.392 17.664-56.128 96.512-56.128 96.512" fill="#040000" p-id="3824"></path><path d="M430.784 331.136s-3.904-37.568 3.136-48.64c7.04-11.072 35.328-14.976 35.328-14.976s-18.048 6.208-26.624 24.832c-8.896 19.264-11.84 38.784-11.84 38.784M682.688 574.656s-0.192-27.072 8.32-36.48c8.512-9.344 35.648-10.048 35.648-10.048s-20.672 6.016-29.504 16.704c-8.064 9.728-14.464 29.824-14.464 29.824M828.544 419.648s0.448-7.808 2.304-16.448c1.728-8.576 1.6-17.216 6.336-33.344 4.672-16.192 19.264-22.912 26.304-22.912 6.976 0 10.432 3.968 10.432 3.968s-15.168-0.832-25.536 17.984c-7.552 13.76-19.84 50.752-19.84 50.752" fill="#040000" p-id="3825"></path><path d="M798.4 396.352s2.816-5.248 5.248-13.12c3.84-12.032 9.216-29.312 21.76-36.352 20.864-11.712 51.904-1.088 51.904-1.088l1.536 8.256c0.768-0.512-31.552-9.664-47.168 0.384-14.72 9.472-33.28 41.92-33.28 41.92" fill="#040000" p-id="3826"></path><path d="M869.12 429.696l-12.16 21.44c0.064-0.192 16-55.424 18.176-82.048 1.28-14.784-3.264-23.04-7.616-30.976-3.136-5.76-6.4-11.648-6.72-19.008-1.024-16.96 13.376-24.448 21.12-25.984l3.392 16.448c-1.92 0.448-8.128 2.304-7.808 8.576a31.68 31.68 0 0 0 4.8 11.904c4.736 8.704 9.792 20.544 8.128 40.384-2.496 28.864-20.992 58.368-21.312 59.264" fill="#080707" p-id="3827"></path><path d="M445.696 902.848c-27.328 0-47.488-15.424-66.496-50.048a662.592 662.592 0 0 0-15.104-26.176c-12.032-19.968-18.624-30.848-9.792-46.144 8.576-14.784 50.752-36.48 65.728-43.84l23.296-42.048s-2.816 14.848-3.392 19.968c-0.832 7.296-3.776 22.08-7.616 28.288-3.2 5.12-4.672 5.888-6.144 7.104-19.328 16.128-52.288 30.272-57.344 38.848-3.52 6.144-2.624 8.832 9.6 29.12 4.288 7.04 9.472 15.68 15.488 26.752 22.464 41.088 41.792 42.688 58.24 41.024 8.064-0.896 8.512-1.536 11.904-6.848 3.584-5.76 9.088-14.4 24.576-25.92 21.44-15.936 43.968-38.848 63.872-59.2 7.808-8 15.104-15.552 22.016-22.144 16.512-16 44.992-103.104 60.032-157.696l16.256 4.416c-3.968 14.4-39.424 140.992-64.64 165.312-6.656 6.528-14.016 14.016-21.696 21.76-20.224 20.736-43.328 44.224-65.856 60.992-12.928 9.6-17.28 16.384-20.416 21.376-5.056 8.064-9.216 13.056-24.32 14.656a71.808 71.808 0 0 1-8.192 0.448" fill="#050505" p-id="3828"></path><path d="M881.664 320.96s31.616-2.752 47.296-18.752c17.536-17.984 28.288-40.192 28.288-40.192s-4.864 34.048-25.088 49.088c-27.712 20.8-50.496 9.856-50.496 9.856" fill="#040000" p-id="3829"></path><path d="M760.256 635.584s-19.456 9.664-33.856 5.568c-5.12-1.408-3.968 1.472-3.968 1.472s4.224 3.456 14.464 3.008a43.84 43.84 0 0 0 19.968-5.568l3.392-4.48z" fill="#F5C720" p-id="3830"></path><path d="M692.864 373.504a13.504 13.504 0 0 1-13.376 13.696 13.568 13.568 0 0 1-13.312-13.696c0-7.552 6.016-13.696 13.312-13.696 7.424 0 13.376 6.144 13.376 13.696" fill="#FFFFFF" p-id="3831"></path><path d="M655.936 424s12.032-40.448 37.12-57.344c25.024-16.96 53.248-16.64 53.248-16.64s-33.344 13.76-49.472 26.816c-19.584 15.872-40.896 47.168-40.896 47.168" fill="#040000" p-id="3832"></path><path d="M843.968 322.944c0 5.632-4.864 10.24-10.816 10.24s-10.816-4.608-10.816-10.24c0-5.632 4.864-10.24 10.816-10.24s10.816 4.608 10.816 10.24" fill="#FFFFFF" p-id="3833"></path><path d="M810.048 336.384s16.512-8.384 36.032-9.088c19.392-0.768 28.288 4.544 28.288 4.544s-20.288-0.64-28.352-0.064c-9.472 0.704-35.968 4.608-35.968 4.608" fill="#040000" p-id="3834"></path></svg>