<?xml version="1.0" standalone="no"?><!DOCTYPE svg PUBLIC "-//W3C//DTD SVG 1.1//EN" "http://www.w3.org/Graphics/SVG/1.1/DTD/svg11.dtd"><svg t="1515457839697" class="icon" style="" viewBox="0 0 1024 1024" version="1.1" xmlns="http://www.w3.org/2000/svg" p-id="2816" xmlns:xlink="http://www.w3.org/1999/xlink" width="48" height="48"><defs><style type="text/css"></style></defs><path d="M968.704 952.32l-141.824-141.824V394.752c0-162.816-116.224-299.008-269.824-329.728-1.024-35.84-30.72-65.024-67.072-65.024-36.864 0-66.56 29.184-67.072 65.536-84.48 17.408-157.696 66.56-205.824 134.656l-102.4-102.4c-16.384-16.384-43.008-16.384-59.392 0-16.384 16.384-16.384 43.008 0 59.392l120.32 120.32 723.456 723.456 10.24 10.24c8.192 8.192 18.944 12.288 29.696 12.288 10.752 0 21.504-4.096 29.696-12.288 16.384-15.872 16.384-42.496 0-58.88zM155.136 394.752v506.88h-61.44c-27.648 0-50.176 22.528-50.176 50.176s22.528 50.176 50.176 50.176h689.152L155.648 375.296c-0.512 6.656-0.512 13.312-0.512 19.456z" fill="#bfbfbf" p-id="2817"></path></svg>