<?xml version="1.0" standalone="no"?><!DOCTYPE svg PUBLIC "-//W3C//DTD SVG 1.1//EN" "http://www.w3.org/Graphics/SVG/1.1/DTD/svg11.dtd"><svg t="1515396880425" class="icon" style="" viewBox="0 0 1024 1024" version="1.1" xmlns="http://www.w3.org/2000/svg" p-id="2151" xmlns:xlink="http://www.w3.org/1999/xlink" width="30" height="30"><defs><style type="text/css"></style></defs><path d="M503.324444 848.227556c-152.945778 0-277.376-111.416889-277.376-248.362667L225.948444 376.448l47.744 0 0 223.416889c0 110.620444 103.011556 200.618667 229.632 200.618667 126.592 0 229.617778-89.998222 229.617778-200.618667L732.942222 376.448l47.744 0 0 223.416889C780.700444 736.810667 656.284444 848.227556 503.324444 848.227556z" p-id="2152" fill="#bfbfbf"></path><path d="M503.324444 708.366222c-96.085333 0-174.250667-78.165333-174.250667-174.236444L329.073778 223.914667c0-96.085333 78.165333-174.222222 174.250667-174.222222 96.056889 0 174.222222 78.136889 174.222222 174.222222l0 310.215111C677.560889 630.200889 599.395556 708.366222 503.324444 708.366222z" p-id="2153" fill="#bfbfbf"></path><path d="M479.431111 825.799111l47.744 0 0 109.852444-47.744 0 0-109.852444Z" p-id="2154" fill="#bfbfbf"></path><path d="M386.801778 911.758222l232.533333 0 0 47.744-232.533333 0 0-47.744Z" p-id="2155" fill="#bfbfbf"></path></svg>